# xmcd CD database file
#
# Track frame offsets:
#	150
#	13602
#	27827
#	41842
#	54747
#	68667
#	82032
#	95305
#	110410
#	123835
#	135832
#	150415
#	162622
#	172347
#	185000
#	197560
#	209627
#	221510
#
# Disc length: 3097 seconds
#
# Revision: 2
# Processed by: cddbd v1.4PL0 Copyright (c) Steve Scherf et al.
# Submitted via: CDex 1.50Beta6
#
DISCID=fd0c1712
DTITLE=DON WILLIAMS - HIS EARLY HITS
DYEAR=1900
DGENRE=Country
TTITLE0=THE SHELTER OF YOUR EYES
TTITLE1=COME EARLY MORNING
TTITLE2=AMANDA
TTITLE3=ATTA WAY TO GO
TTITLE4=WE SHOULD BE TOGETHER
TTITLE5=DOWN THE ROAD I GO
TTITLE6=I WOULDN'T WANT TO LIVE IF YOU DIDN'T LOVE ME
TTITLE7=I RECALL A GYPSY WOMAN
TTITLE8=PLAYING AROUND
TTITLE9=MILLER'S CAVE
TTITLE10=SHE'S IN LOVE WITH A RODEO MAN
TTITLE11=HE'S A FRIEND OF MINE
TTITLE12=BRINGING IT DOWN TO YOU
TTITLE13=THERE'S NEVER BEEN A TIME
TTITLE14=COMING APART
TTITLE15=ON HER WAY TO BEING A WOMAN
TTITLE16=FOLLOW ME BACK TO LOUISVILLE
TTITLE17=(THERE'S) ALWAYS SOMETHING THERE TO REMIND ME
EXTD=
EXTT0=
EXTT1=
EXTT2=
EXTT3=
EXTT4=
EXTT5=
EXTT6=
EXTT7=
EXTT8=
EXTT9=
EXTT10=
EXTT11=
EXTT12=
EXTT13=
EXTT14=
EXTT15=
EXTT16=
EXTT17=
PLAYORDER=
